# Blender v2.78 (sub 0) OBJ File: ''
# www.blender.org
mtllib x.mtl
o Object.1
v 0.934738 -2.013261 0.500000
v 0.934738 -2.013261 -0.500000
v 2.008061 -2.013261 0.500000
v 0.619605 0.027301 0.500000
v -0.001301 -0.646646 0.500000
v -0.001301 -0.646646 -0.500000
v -0.927978 -2.013261 -0.500000
v -0.619085 0.027301 -0.500000
v -2.007541 -2.013261 -0.500000
v -0.927978 -2.013261 0.500000
v -2.007541 -2.013261 0.500000
v -0.619085 0.027301 0.500000
v -1.954499 1.986740 -0.500000
v -0.878056 1.986740 -0.500000
v -0.001301 0.698128 -0.500000
v -0.878056 1.986740 0.500000
v -1.954499 1.986740 0.500000
v -0.001301 0.698127 0.500000
v 0.872335 1.986740 0.500000
v 0.872335 1.986740 -0.500000
v 0.619605 0.027301 -0.500000
v 1.955019 1.986740 -0.500000
v 1.955019 1.986740 0.500000
v 2.008061 -2.013261 -0.500000
vn 0.0000 -1.0000 0.0000
vn 0.0000 -0.0000 1.0000
vn -0.8250 -0.5651 -0.0000
vn 0.8277 -0.5612 -0.0000
vn 0.0000 0.0000 -1.0000
vn -0.8268 0.5626 0.0000
vn -0.8263 -0.5632 0.0000
vn 0.8268 0.5625 0.0000
vn 0.0000 1.0000 0.0000
vn -0.8277 0.5612 0.0000
vn 0.8263 -0.5632 -0.0000
vn 0.8268 0.5626 0.0000
usemtl None
s off
f 1//1 2//1 3//1
f 3//2 4//2 1//2
f 1//2 4//2 5//2
f 5//3 6//3 1//3
f 5//4 7//4 6//4
f 8//5 6//5 7//5
f 9//5 8//5 7//5
f 10//1 9//1 7//1
f 11//1 9//1 10//1
f 10//2 12//2 11//2
f 12//6 8//6 11//6
f 12//7 13//7 8//7
f 8//5 13//5 14//5
f 15//5 8//5 14//5
f 16//8 15//8 14//8
f 16//9 14//9 17//9
f 17//2 12//2 16//2
f 12//2 18//2 16//2
f 4//2 18//2 12//2
f 4//2 19//2 18//2
f 19//10 20//10 18//10
f 18//10 20//10 15//10
f 15//5 20//5 21//5
f 21//5 20//5 22//5
f 23//11 21//11 22//11
f 23//9 22//9 19//9
f 4//11 21//11 23//11
f 4//12 24//12 21//12
f 24//5 2//5 21//5
f 21//5 2//5 6//5
f 19//9 22//9 20//9
f 23//2 19//2 4//2
f 18//8 15//8 16//8
f 15//5 21//5 8//5
f 17//9 14//9 13//9
f 17//7 13//7 12//7
f 10//2 5//2 12//2
f 11//6 8//6 9//6
f 21//5 6//5 8//5
f 10//4 7//4 5//4
f 5//2 4//2 12//2
f 3//12 24//12 4//12
f 3//1 2//1 24//1
f 1//3 6//3 2//3
